<?xml version="1.0" encoding="utf-8"?>
<!-- Generator: Adobe Illustrator 16.0.0, SVG Export Plug-In . SVG Version: 6.00 Build 0)  -->
<!DOCTYPE svg PUBLIC "-//W3C//DTD SVG 1.1//EN" "http://www.w3.org/Graphics/SVG/1.1/DTD/svg11.dtd">
<svg version="1.1" id="Layer_1" xmlns="http://www.w3.org/2000/svg" xmlns:xlink="http://www.w3.org/1999/xlink" x="0px" y="0px"
	 width="75px" height="75px" viewBox="0 0 75 75" enable-background="new 0 0 75 75" xml:space="preserve">
<g>
	<path fill="#C3002F" d="M28.7675781,11.9316406c8.4443359-6.046875,17.7851563-9.328125,26.4443359-9.875
		c0.8476563-0.0537109,0.8310547-1.2988281-0.0175781-1.3505859C45.3652344,0.1035156,35.2719727,2.75,26.6328125,8.9365234
		c-8.6391602,6.1855469-14.409668,14.8974609-17.0297852,24.4140625c-0.2255859,0.8222656,0.9443359,1.2402344,1.269043,0.4550781
		C14.1967773,25.7714844,20.3232422,17.9775391,28.7675781,11.9316406"/>
	<path fill="#C3002F" d="M48.0322266,29.8496094c0-0.8642578-0.5234375-1.6054688-1.2685547-1.9248047
		c-0.2441406-0.1044922-0.5136719-0.1640625-0.7958984-0.1669922c-0.0087891,0-0.0166016,0-0.0244141,0
		c-0.1289063,0-0.2548828-0.0126953-0.3759766-0.0351563c0,0-0.0048828,0-0.0048828-0.0019531
		c-0.0898438-0.0146484-0.1777344-0.0371094-0.2636719-0.0654297c-0.0673828-0.0214844-0.1328125-0.0458984-0.1962891-0.0761719
		c-0.0859375-0.03125-0.1679688-0.0732422-0.2412109-0.125c-0.2119141-0.1464844-0.3740234-0.359375-0.4521484-0.6113281
		c-0.0351563-0.109375-0.0537109-0.2265625-0.0537109-0.3486328c0-0.2675781,0.0898438-0.5126953,0.2392578-0.7070313
		c0.2128906-0.2763672,0.5458984-0.453125,0.9199219-0.453125h0.5537109
		c-0.3466797-0.5361328-0.9345703-0.9023438-1.6083984-0.9482422c-0.046875-0.0039063-0.0947266-0.0048828-0.1425781-0.0048828
		c-0.0078125,0-0.0166016,0-0.0244141,0.0009766c-0.4414063,0.0039063-0.8505859,0.1464844-1.1855469,0.3857422
		l-0.0009766-0.0019531c-0.3339844,0.2255859-0.734375,0.3574219-1.1679688,0.3574219
		c-0.6699219,0-1.265625-0.3164063-1.6464844-0.8085938c-0.0166016-0.0175781-0.0302734-0.0371094-0.0439453-0.0566406
		c-0.1318359-0.1816406-0.2363281-0.3857422-0.3037109-0.6054688c-0.0615234-0.1972656-0.09375-0.4052734-0.09375-0.6230469
		c0-0.8232422-0.4736328-1.5351563-1.1630859-1.8769531c-0.2792969-0.1386719-0.5927734-0.2177734-0.9257813-0.2177734
		c-0.0595703,0-0.1162109,0.0019531-0.1728516,0.0078125c-0.0537109-0.0058594-0.1064453-0.0078125-0.1601563-0.0078125h-1.4980469
		h-2.0820313h-4.3881836c1.0766602,1.2705078,2.4853516,2.25,4.0913086,2.8037109
		c0.7919922,0.2773438,1.6323242,0.4482422,2.5043945,0.4990234c0.1557617,0.0117188,0.315918,0.0166016,0.4750977,0.0166016
		c0.0791016,0.2138672,0.1669922,0.4238281,0.2626953,0.6308594c0.3935547,0.8564453,0.9121094,1.6435547,1.5332031,2.3369141
		c-1.1289063,0.3232422-2.1982422,0.7832031-3.1923828,1.3603516c0.8432617,1.2626953,1.984375,2.3095703,3.3212891,3.0380859
		c0.3916016-1.0419922,0.9589844-2,1.6630859-2.8359375c1.1132813,0.7470703,2.3955078,1.2607422,3.7744141,1.4746094
		c0.3388672,0.0527344,0.6816406,0.0869141,1.03125,0.1015625c0.2333984,0.5537109,0.5214844,1.0820313,0.8525391,1.5761719
		c0.0722656,0.109375,0.1484375,0.2158203,0.2275391,0.3222656c0.5673828,0.7763672,1.2539063,1.4609375,2.0273438,2.0302734
		v-3.0126953v-1.2978516l-0.0019531,0.0009766C48.0302734,29.9375,48.0322266,29.8935547,48.0322266,29.8496094"/>
	<path fill="#C3002F" d="M66.0605469,24.6953125c0-1.0751953-0.6503906-1.9990234-1.5771484-2.3945313
		c-0.3066406-0.1328125-0.640625-0.2060547-0.9931641-0.2089844c-0.0087891,0-0.0205078,0-0.0283203,0
		c-0.1611328,0-0.3173828-0.015625-0.46875-0.0439453c0,0-0.0048828,0-0.0058594,0
		c-0.1123047-0.0214844-0.2207031-0.0488281-0.3261719-0.0839844c-0.0849609-0.0263672-0.1679688-0.0576172-0.2460938-0.0947266
		c-0.1083984-0.0390625-0.2089844-0.0917969-0.3007813-0.15625c-0.2626953-0.1816406-0.4638672-0.4472656-0.5615234-0.7597656
		c-0.0439453-0.1357422-0.0664063-0.2822266-0.0664063-0.4335938c0-0.3330078,0.1103516-0.6386719,0.2978516-0.8808594
		c0.2636719-0.3427734,0.6787109-0.5634766,1.1435547-0.5634766h0.6894531
		c-0.4326172-0.6669922-1.1630859-1.1220703-2.0009766-1.1796875c-0.0595703-0.0048828-0.1191406-0.0068359-0.1777344-0.0068359
		c-0.0117188,0-0.0195313,0-0.03125,0.0019531c-0.5488281,0.0048828-1.0576172,0.1816406-1.4726563,0.4814453l-0.0029297-0.0039063
		c-0.4150391,0.28125-0.9160156,0.4443359-1.4541016,0.4443359c-0.8330078,0-1.5742188-0.3925781-2.0488281-1.0039063
		c-0.0195313-0.0234375-0.0371094-0.0478516-0.0537109-0.0722656c-0.1650391-0.2265625-0.2939453-0.4794922-0.3798828-0.7519531
		c-0.0742188-0.2451172-0.1162109-0.5058594-0.1162109-0.7753906c0-1.0253906-0.5888672-1.9111328-1.4462891-2.3369141
		c-0.3476563-0.1728516-0.7373047-0.2695313-1.1523438-0.2695313c-0.0732422,0-0.1435547,0.0029297-0.2148438,0.0087891
		C53,13.6054688,52.9345703,13.6025391,52.8662109,13.6025391h-1.8632813h-2.5898438h-5.4609375
		c1.3408203,1.5791016,3.0917969,2.7988281,5.0917969,3.4892578c0.9833984,0.3427734,2.0302734,0.5556641,3.1132813,0.6191406
		c0.1972656,0.0136719,0.3935547,0.0214844,0.5927734,0.0214844c0.0976563,0.2666016,0.2080078,0.5273438,0.3271484,0.7832031
		c0.4902344,1.0664063,1.1347656,2.0449219,1.90625,2.9091797c-1.4033203,0.4023438-2.734375,0.9746094-3.9716797,1.6933594
		c1.0498047,1.5703125,2.4707031,2.8720703,4.1337891,3.7792969c0.4873047-1.2978516,1.1923828-2.4882813,2.0703125-3.5283203
		c1.3847656,0.9287109,2.9794922,1.5683594,4.6953125,1.8349609c0.421875,0.0654297,0.8476563,0.1074219,1.2822266,0.1259766
		c0.2919922,0.6884766,0.6494141,1.3466797,1.0605469,1.9609375c0.0908203,0.1367188,0.1855469,0.2695313,0.2832031,0.4013672
		c0.7070313,0.9658203,1.5595703,1.8183594,2.5234375,2.5253906V26.46875v-1.6142578l-0.0029297,0.0019531
		C66.0585938,24.8027344,66.0605469,24.75,66.0605469,24.6953125"/>
	<path fill="#C3002F" d="M36.1845703,37.8632813c0-0.5634766-0.3408203-1.0498047-0.828125-1.2578125
		c-0.1601563-0.0683594-0.3349609-0.1064453-0.5209961-0.1083984c-0.0043945,0-0.0097656,0-0.0151367,0
		c-0.0839844,0-0.1660156-0.0087891-0.2451172-0.0244141h-0.0029297c-0.0585938-0.0107422-0.1162109-0.0234375-0.171875-0.0439453
		c-0.0439453-0.0126953-0.0869141-0.0283203-0.1289063-0.0478516c-0.0561523-0.0224609-0.109375-0.0488281-0.1577148-0.0839844
		c-0.1386719-0.0947266-0.2436523-0.2324219-0.2954102-0.3974609c-0.0229492-0.0703125-0.0341797-0.1494141-0.0341797-0.2294922
		c0-0.1728516,0.0585938-0.3339844,0.15625-0.4609375c0.1386719-0.1787109,0.3564453-0.2949219,0.6005859-0.2949219h0.3613281
		c-0.2275391-0.3496094-0.6103516-0.5898438-1.0507813-0.6201172c-0.0302734-0.0019531-0.0615234-0.0019531-0.09375-0.0019531
		c-0.0053711,0-0.0097656,0-0.0151367,0c-0.2880859,0.0019531-0.5551758,0.0966797-0.7739258,0.2519531l-0.0014648-0.0019531
		c-0.2172852,0.1474609-0.4799805,0.2333984-0.7631836,0.2333984c-0.4365234,0-0.8251953-0.2070313-1.074707-0.5253906
		c-0.0102539-0.0136719-0.0200195-0.0263672-0.0288086-0.0400391c-0.0869141-0.1181641-0.1542969-0.2509766-0.1987305-0.3955078
		c-0.0400391-0.1279297-0.0610352-0.2636719-0.0610352-0.40625c0-0.5380859-0.3095703-1.0029297-0.7597656-1.2246094
		c-0.1816406-0.0917969-0.3867188-0.1435547-0.6044922-0.1435547c-0.0390625,0-0.0761719,0.0019531-0.1132813,0.0058594
		c-0.0351563-0.0039063-0.0693359-0.0058594-0.1044922-0.0058594H28.28125h-1.3608398h-2.8657227
		c0.703125,0.8291016,1.6240234,1.46875,2.6728516,1.8310547c0.5166016,0.1806641,1.0654297,0.2929688,1.6342773,0.3261719
		c0.1020508,0.0087891,0.206543,0.0107422,0.3110352,0.0107422c0.0512695,0.140625,0.109375,0.2773438,0.1723633,0.4111328
		c0.2563477,0.5605469,0.5952148,1.0732422,0.9995117,1.5283203c-0.7353516,0.2109375-1.4345703,0.5107422-2.0839844,0.8886719
		c0.5507813,0.8242188,1.296875,1.5058594,2.1699219,1.9833984c0.2553711-0.6816406,0.6254883-1.3066406,1.0859375-1.8515625
		c0.7270508,0.4882813,1.5649414,0.8222656,2.465332,0.9628906c0.2211914,0.0332031,0.4453125,0.0546875,0.6733398,0.0664063
		c0.1533203,0.3623047,0.3408203,0.7050781,0.5566406,1.0292969c0.046875,0.0703125,0.097168,0.140625,0.1484375,0.2109375
		c0.3710938,0.5058594,0.8183594,0.9541016,1.3242188,1.3261719v-1.96875v-0.8486328l-0.0009766,0.0019531
		C36.1845703,37.9199219,36.1845703,37.8916016,36.1845703,37.8632813"/>
	<path fill="#77777A" d="M4.0537109,68.0478516l-1.5283203-0.2529297C1.6118164,67.6523438,1.46875,67.3525391,1.46875,66.6582031
		c0-0.8271484,0.3081055-1.0693359,1.6064453-1.0693359c0.6601563,0,1.3310547-0.0107422,2.3759766,0.0224609l0.1977539-1.0361328
		c-1.2202148-0.0322266-1.6499023-0.0214844-2.4750977-0.0214844c-2.1337891,0-2.8598633,0.7939453-2.8598633,2.0605469v0.2109375
		c0,1.1347656,0.3520508,1.7861328,1.8266602,2.0273438L3.625,69.0966797
		c0.9682617,0.1757813,1.1113281,0.4404297,1.1113281,1.2001953c0,0.8828125-0.3188477,1.1152344-1.7714844,1.1152344
		c-0.7475586,0-1.2973633,0.0117188-2.4750977-0.0214844l-0.1977539,1.0351563
		c1.3642578,0.0332031,2.222168,0.0224609,2.6728516,0.0224609c2.2333984,0,2.9267578-0.7060547,2.9267578-2.1181641v-0.1865234
		C5.8916016,68.875,5.4287109,68.2783203,4.0537109,68.0478516"/>
	<path fill="#77777A" d="M9.6259766,66.5478516c-0.9570313,0-1.4189453,0.2548828-1.6396484,0.5078125v-2.8232422H6.8320313
		v8.1933594h1.1542969v-3.4501953c0-1.0820313,0.2641602-1.46875,1.4521484-1.46875
		c1.1772461,0,1.2763672,0.3867188,1.2763672,1.1259766v3.7929688h1.1552734v-4.0234375
		C11.8701172,67.0449219,10.9790039,66.5478516,9.6259766,66.5478516"/>
	<path fill="#77777A" d="M15.2436523,66.7021484c-0.6162109,0-1.265625,0.0126953-1.6723633,0.0244141l-0.2089844,0.9580078
		c0.4951172-0.0107422,1.2651367-0.0214844,1.8813477-0.0214844c1.2871094,0,1.4189453,0.3740234,1.4189453,1.1015625v0.3320313
		c-0.230957-0.1669922-0.7036133-0.3320313-1.5834961-0.3320313c-1.5410156,0-2.2446289,0.4863281-2.2446289,1.7197266v0.2441406
		c0,1.1347656,0.6157227,1.6972656,2.15625,1.6972656h1.6499023c0.8466797,0,1.1220703-0.2412109,1.1220703-0.9472656v-2.9228516
		C17.7626953,67.3310547,17.0151367,66.7021484,15.2436523,66.7021484 M16.6625977,71.4892578h-1.671875
		c-0.8251953,0-1.0776367-0.2548828-1.0776367-0.7714844V70.484375c0-0.6152344,0.2524414-0.8046875,1.2207031-0.8046875h0.2529297
		c1.1113281,0,1.2758789,0.2216797,1.2758789,0.7939453V71.4892578z"/>
	<path fill="#77777A" d="M22.3540039,66.7148438c-0.2529297-0.0126953-0.5825195-0.0126953-1.2871094-0.0126953
		c-1.2871094,0-2.1450195,0.4970703-2.1450195,1.8203125v3.9033203h1.1547852v-3.6503906
		c0-0.7167969,0.0776367-1.1123047,1.1010742-1.1123047c0.40625,0,0.9458008,0.0107422,0.9785156,0.0107422L22.3540039,66.7148438z"
		/>
	<path fill="#77777A" d="M23.1538086,72.3710938c0,0.9589844-0.2197266,1.0800781-0.9125977,1.0800781
		c-0.2973633,0-0.484375,0-0.6933594-0.0087891l-0.1982422,0.9150391c0.1210938,0.0107422,0.362793,0.0195313,0.9248047,0.0195313
		c1.4848633,0,2.0341797-0.4511719,2.0341797-2.0058594v-5.6474609h-1.1547852V72.3710938z"/>
	<path fill="#77777A" d="M27.671875,66.7021484c-0.6157227,0-1.2646484,0.0126953-1.6723633,0.0244141l-0.2089844,0.9580078
		c0.4946289-0.0107422,1.265625-0.0214844,1.8813477-0.0214844c1.2866211,0,1.418457,0.3740234,1.418457,1.1015625v0.3320313
		c-0.230957-0.1669922-0.7036133-0.3320313-1.5834961-0.3320313c-1.5400391,0-2.2441406,0.4863281-2.2441406,1.7197266v0.2441406
		c0,1.1347656,0.6162109,1.6972656,2.15625,1.6972656h1.6499023c0.847168,0,1.1220703-0.2412109,1.1220703-0.9472656v-2.9228516
		C30.190918,67.3310547,29.4428711,66.7021484,27.671875,66.7021484 M29.090332,71.4892578h-1.6713867
		c-0.8256836,0-1.0786133-0.2548828-1.0786133-0.7714844V70.484375c0-0.6152344,0.2529297-0.8046875,1.2211914-0.8046875h0.253418
		c1.1108398,0,1.2753906,0.2216797,1.2753906,0.7939453V71.4892578z"/>
	<path fill="#77777A" d="M34.1582031,66.5478516c-0.956543,0-1.418457,0.2548828-1.6396484,0.5078125v-2.8232422h-1.1542969
		v8.1933594h1.1542969v-3.4501953c0-1.0820313,0.2646484-1.46875,1.4526367-1.46875
		c1.1772461,0,1.2758789,0.3867188,1.2758789,1.1259766v3.7929688h1.1552734v-4.0234375
		C36.4023438,67.0449219,35.5112305,66.5478516,34.1582031,66.5478516"/>
	<path fill="#77777A" d="M42.9482422,64.5751953l-2.9921875,7.8505859h1.1660156l0.8144531-2.2490234h3.2216797l0.8251953,2.2490234
		h1.2324219l-2.9921875-7.8505859H42.9482422z M42.2880859,69.1845703l1.2539063-3.4414063l1.2539063,3.4414063H42.2880859z"/>
	<rect x="48.0722656" y="66.7265625" fill="#77777A" width="1.1542969" height="5.6992188"/>
	<path fill="#77777A" d="M50.3808594,68.5224609v3.9033203h1.1552734v-3.6503906
		c0-0.7167969,0.0761719-1.1123047,1.0996094-1.1123047c0.40625,0,0.9453125,0.0107422,0.9785156,0.0107422L53.8125,66.7148438
		c-0.2539063-0.0126953-0.5830078-0.0126953-1.2871094-0.0126953
		C51.2392578,66.7021484,50.3808594,67.1992188,50.3808594,68.5224609"/>
	<path fill="#77777A" d="M57.0478516,66.5478516c-1.8710938,0-2.6289063,0.6396484-2.6289063,2.7246094v5.0820313h1.1650391
		v-2.203125c0.296875,0.2636719,0.7597656,0.4501953,1.4541016,0.4501953c2.0996094,0,2.6171875-0.8486328,2.6171875-2.7773438
		V69.328125C59.6552734,67.1552734,58.9287109,66.5478516,57.0478516,66.5478516 M58.4785156,69.8242188
		c0,1.5546875-0.2089844,1.8300781-1.4404297,1.8300781c-1.1572266,0-1.4638672-0.3076172-1.4638672-1.5986328v-0.7832031
		c0-1.5439453,0.2744141-1.7744141,1.4638672-1.7744141c1.1982422,0,1.4404297,0.2197266,1.4404297,1.8300781V69.8242188z"/>
	<path fill="#77777A" d="M63.2392578,66.5478516c-1.8925781,0-2.6523438,0.6074219-2.6523438,2.7246094v0.6074219
		c0,2.1152344,0.7597656,2.7216797,2.6523438,2.7216797s2.6513672-0.6064453,2.6513672-2.7216797v-0.6074219
		C65.890625,67.1552734,65.1318359,66.5478516,63.2392578,66.5478516 M64.7128906,69.8798828
		c0,1.5439453-0.2529297,1.7744141-1.4736328,1.7744141s-1.4746094-0.2304688-1.4746094-1.7744141v-0.6074219
		c0-1.5439453,0.2539063-1.7763672,1.4746094-1.7763672s1.4736328,0.2324219,1.4736328,1.7763672V69.8798828z"/>
	<path fill="#77777A" d="M66.9316406,68.5224609v3.9033203h1.1542969v-3.6503906
		c0-0.7167969,0.0771484-1.1123047,1.0996094-1.1123047c0.4082031,0,0.9462891,0.0107422,0.9794922,0.0107422l0.1982422-0.9589844
		c-0.2529297-0.0126953-0.5830078-0.0126953-1.2880859-0.0126953
		C67.7890625,66.7021484,66.9316406,67.1992188,66.9316406,68.5224609"/>
	<path fill="#77777A" d="M72.3183594,70.3300781v-2.6455078h1.8925781l0.1972656-0.9580078h-2.0898438v-1.5576172
		l-1.1542969,0.2109375v4.9833984c0,1.5878906,0.4287109,2.0625,2.1884766,2.0625h0.7919922l0.1982422-0.9365234h-1.0009766
		C72.484375,71.4892578,72.3183594,71.3115234,72.3183594,70.3300781"/>
	<path fill="#77777A" d="M23.7299805,65.7939453c0.2089844,0,0.3862305-0.0751953,0.5336914-0.2226563
		c0.1469727-0.1474609,0.2207031-0.3251953,0.2207031-0.5341797s-0.0737305-0.3867188-0.2207031-0.5341797
		c-0.1474609-0.1474609-0.324707-0.2197266-0.5336914-0.2197266c-0.2084961,0-0.3862305,0.0722656-0.5332031,0.2197266
		c-0.1474609,0.1474609-0.2202148,0.3251953-0.2202148,0.5341797s0.0727539,0.3867188,0.2202148,0.5341797
		C23.34375,65.71875,23.5214844,65.7939453,23.7299805,65.7939453"/>
	<path fill="#77777A" d="M48.6494141,65.7939453c0.2089844,0,0.3857422-0.0751953,0.5332031-0.2226563
		s0.2207031-0.3251953,0.2207031-0.5341797s-0.0732422-0.3867188-0.2207031-0.5341797s-0.3242188-0.2197266-0.5332031-0.2197266
		s-0.3867188,0.0722656-0.5332031,0.2197266c-0.1474609,0.1474609-0.2207031,0.3251953-0.2207031,0.5341797
		s0.0732422,0.3867188,0.2207031,0.5341797C48.2626953,65.71875,48.4404297,65.7939453,48.6494141,65.7939453"/>
	<path fill="#77777A" d="M2.7109375,52.1835938c0.2080078,0,0.3867188-0.0751953,0.5332031-0.2226563
		c0.1474609-0.1464844,0.2207031-0.3251953,0.2207031-0.5341797s-0.0732422-0.3867188-0.2207031-0.5341797
		c-0.1464844-0.1474609-0.3251953-0.2226563-0.5332031-0.2226563s-0.3867188,0.0751953-0.5332031,0.2226563
		c-0.1474609,0.1474609-0.2207031,0.3251953-0.2207031,0.5341797s0.0732422,0.3876953,0.2207031,0.5341797
		C2.3242188,52.1083984,2.5029297,52.1835938,2.7109375,52.1835938"/>
	<path fill="#77777A" d="M4.5595703,52.1835938c0.2089844,0,0.3867188-0.0751953,0.5341797-0.2226563
		c0.1464844-0.1464844,0.2197266-0.3251953,0.2197266-0.5341797S5.2402344,51.0400391,5.09375,50.8925781
		c-0.1474609-0.1474609-0.3251953-0.2226563-0.5341797-0.2226563c-0.2080078,0-0.3862305,0.0751953-0.5332031,0.2226563
		c-0.1464844,0.1474609-0.2202148,0.3251953-0.2202148,0.5341797s0.0737305,0.3876953,0.2202148,0.5341797
		C4.1733398,52.1083984,4.3515625,52.1835938,4.5595703,52.1835938"/>
	<path fill="#77777A" d="M11.1884766,52.1835938c0.2080078,0,0.3857422-0.0751953,0.5332031-0.2226563
		c0.1469727-0.1464844,0.2197266-0.3251953,0.2197266-0.5341797s-0.0727539-0.3867188-0.2197266-0.5341797
		c-0.1474609-0.1474609-0.3251953-0.2226563-0.5332031-0.2226563c-0.2089844,0-0.3867188,0.0751953-0.5336914,0.2226563
		s-0.2202148,0.3251953-0.2202148,0.5341797s0.0732422,0.3876953,0.2202148,0.5341797
		C10.8017578,52.1083984,10.9794922,52.1835938,11.1884766,52.1835938"/>
	<path fill="#77777A" d="M13.0371094,52.1835938c0.2089844,0,0.3867188-0.0751953,0.5336914-0.2226563
		c0.1469727-0.1464844,0.2202148-0.3251953,0.2202148-0.5341797s-0.0732422-0.3867188-0.2202148-0.5341797
		s-0.324707-0.2226563-0.5336914-0.2226563c-0.2080078,0-0.3862305,0.0751953-0.5332031,0.2226563
		c-0.1474609,0.1474609-0.2202148,0.3251953-0.2202148,0.5341797s0.0727539,0.3876953,0.2202148,0.5341797
		C12.6508789,52.1083984,12.8291016,52.1835938,13.0371094,52.1835938"/>
	<path fill="#77777A" d="M12.4824219,53.3291016c-0.5976563,0-1.2763672-0.0087891-1.7041016,0.1650391
		c-0.3144531,0.1269531-0.6425781,0.3007813-0.9277344,0.5625c-0.2841797,0.2617188-0.4951172,0.5742188-0.6328125,0.9355469
		c-0.137207,0.3603516-0.2050781,0.7558594-0.2050781,1.1826172c0,0.3232422,0.0390625,0.6748047,0.1201172,1.0556641
		s0.2011719,0.765625,0.3623047,1.1542969H7.5185547c-0.0039063,0-0.0068359,0-0.0102539,0H7.5043945H7.1772461
		c-0.4174805,0-0.6899414-0.1074219-0.8173828-0.328125c-0.128418-0.2167969-0.1923828-0.4902344-0.1923828-0.8105469v-3.9169922
		H4.0678711c-1.0874023,0-1.7524414-0.0351563-2.5541992,0.5654297c-0.6123047,0.4570313-0.921875,1.1787109-0.921875,2.1660156
		c0,0.8378906,0.2719727,1.4707031,0.8154297,1.9042969c0.5439453,0.4335938,1.378418,0.6484375,2.5043945,0.6484375h1.3198242
		c0.1601563,0.2753906,0.3847656,0.4726563,0.6738281,0.5917969c0.2880859,0.1191406,0.6318359,0.1777344,1.0302734,0.1777344
		h0.5688477c0.003418,0,0.0063477,0,0.0102539,0c0.0014648,0,0.0024414,0,0.0039063,0h7.1123047v-6.0537109H12.4824219z
		 M4.9726563,57.6572266H4.1337891c-0.7402344,0-1.309082-0.1318359-1.7070313-0.3984375
		c-0.3984375-0.265625-0.597168-0.7041016-0.597168-1.3125c0-0.6445313,0.1962891-1.1064453,0.5898438-1.3818359
		c0.394043-0.2763672,0.9223633-0.2373047,1.5854492-0.2373047h0.9677734V57.6572266z M13.4355469,58.3847656h-2.6455078
		c-0.2563477-0.6181641-0.4101563-1.1015625-0.4624023-1.453125c-0.0522461-0.3525391-0.078125-0.609375-0.078125-0.7695313
		c0-0.7324219,0.2250977-1.25,0.675293-1.5488281c0.4506836-0.2988281,1.1123047-0.2861328,1.984375-0.2861328h0.5263672V58.3847656
		z"/>
	<path fill="#77777A" d="M30.2041016,50.4726563c0.2084961,0,0.3867188-0.0751953,0.5332031-0.2226563
		c0.1474609-0.1464844,0.2211914-0.3251953,0.2211914-0.5341797s-0.0737305-0.3867188-0.2211914-0.5341797
		c-0.1464844-0.1474609-0.324707-0.2197266-0.5332031-0.2197266c-0.2080078,0-0.3867188,0.0722656-0.5332031,0.2197266
		c-0.1474609,0.1474609-0.2207031,0.3251953-0.2207031,0.5341797S29.5234375,50.1035156,29.6708984,50.25
		C29.8173828,50.3974609,29.9960938,50.4726563,30.2041016,50.4726563"/>
	<path fill="#77777A" d="M29.2514648,52.1835938c0.2084961,0,0.3862305-0.0751953,0.5332031-0.2226563
		c0.1474609-0.1464844,0.2202148-0.3251953,0.2202148-0.5341797s-0.0727539-0.3867188-0.2202148-0.5341797
		c-0.1469727-0.1474609-0.324707-0.2226563-0.5332031-0.2226563s-0.3862305,0.0751953-0.5336914,0.2226563
		c-0.1469727,0.1474609-0.2197266,0.3251953-0.2197266,0.5341797s0.0727539,0.3876953,0.2197266,0.5341797
		C28.8652344,52.1083984,29.0429688,52.1835938,29.2514648,52.1835938"/>
	<path fill="#77777A" d="M30.3466797,51.4267578c0,0.2089844,0.0732422,0.3876953,0.2207031,0.5341797
		c0.1469727,0.1474609,0.324707,0.2226563,0.5332031,0.2226563c0.2089844,0,0.3862305-0.0751953,0.5332031-0.2226563
		c0.1474609-0.1464844,0.2207031-0.3251953,0.2207031-0.5341797s-0.0732422-0.3867188-0.2207031-0.5341797
		c-0.1469727-0.1474609-0.3242188-0.2226563-0.5332031-0.2226563c-0.2084961,0-0.3862305,0.0751953-0.5332031,0.2226563
		C30.4199219,51.0400391,30.3466797,51.2177734,30.3466797,51.4267578"/>
	<path fill="#77777A" d="M37.4863281,58.3847656h-1.777832h-0.0004883h-0.3828125
		c-0.0859375,0-0.1850586-0.0087891-0.2993164-0.0283203c-0.1137695-0.0205078-0.2202148-0.0488281-0.3198242-0.0859375
		c-0.0991211-0.0371094-0.1826172-0.0878906-0.2490234-0.1494141s-0.0996094-0.1347656-0.0996094-0.2197266v-4.5791016h-1.1943359
		v3.9365234c0,0.3984375-0.0571289,0.6865234-0.1708984,0.8623047s-0.3652344,0.2636719-0.7539063,0.2636719h-1.5361328v-3.7783203
		h-1.1953125v3.7783203h-2.4882813v-3.7783203h-1.1953125v3.7783203h-2.3461914h-0.3696289
		c-0.4174805,0-0.6879883-0.0966797-0.8115234-0.2929688c-0.1230469-0.1933594-0.1845703-0.4765625-0.1845703-0.8457031v-8.171875
		l-1.1953125,0.2167969v8.1240234c0,0.7148438,0.1855469,1.2207031,0.5546875,1.5195313
		c0.3701172,0.2988281,0.8583984,0.4482422,1.4658203,0.4482422h0.5405273h9.0317383
		c0.4926758,0,0.862793-0.0634766,1.1088867-0.1933594c0.2470703-0.1269531,0.4272461-0.2675781,0.5410156-0.4199219
		c0.1513672,0.2285156,0.3334961,0.3867188,0.5473633,0.4775391c0.2138672,0.0898438,0.4570313,0.1357422,0.7319336,0.1357422
		h0.2700195h0.0004883h2.972168V49.0742188h-1.1943359V58.3847656z"/>
	<path fill="#77777A" d="M17.59375,59.7988281c0,0.9941406-0.2280273,1.1191406-0.9462891,1.1191406
		c-0.3076172,0-0.5009766,0-0.7177734-0.0107422l-0.2050781,0.9482422c0.125,0.0107422,0.3759766,0.0234375,0.9580078,0.0234375
		c1.5375977,0,2.1083984-0.4677734,2.1083984-2.0800781v-6.4765625H17.59375V59.7988281z"/>
	<path fill="#77777A" d="M49.5166016,59.7988281c0,0.9941406-0.2285156,1.1191406-0.9453125,1.1191406
		c-0.3076172,0-0.5019531,0-0.71875-0.0107422l-0.2050781,0.9482422c0.125,0.0107422,0.3759766,0.0234375,0.9580078,0.0234375
		c1.5380859,0,2.1074219-0.4677734,2.1074219-2.0800781v-6.4765625h-1.1962891V59.7988281z"/>
	<rect x="41.0283203" y="49.0742188" fill="#77777A" width="1.1943359" height="10.3085938"/>
	<path fill="#77777A" d="M72.0576172,53.3291016c-1.8935547,0-2.6523438,0.6064453-2.6523438,2.7246094v0.6044922
		c0,0.7548828,0.0996094,1.3154297,0.3095703,1.7265625H67.296875h-0.0009766h-0.0029297h-0.2724609
		c-0.0869141,0-0.1855469-0.0087891-0.3007813-0.0283203c-0.1152344-0.0205078-0.21875-0.0458984-0.3164063-0.0859375
		c-0.0957031-0.0371094-0.1757813-0.0878906-0.2441406-0.1494141c-0.0654297-0.0615234-0.0986328-0.1367188-0.0986328-0.2197266
		v-0.9990234c0-0.5234375-0.0527344-1.0048828-0.15625-1.4472656c-0.1044922-0.4414063-0.3007813-0.8193359-0.5888672-1.1347656
		c-0.2890625-0.3115234-0.6875-0.5576172-1.1933594-0.734375c-0.5058594-0.1757813-1.1582031-0.2636719-1.9511719-0.2636719
		c-0.2753906,0-3.7060547,0.0068359-3.7060547,0.0068359v-4.2548828h-1.1943359v9.3105469h-1.8632813h-0.3691406
		c-0.4179688,0-0.6875-0.0966797-0.8105469-0.2929688c-0.125-0.1933594-0.1855469-0.4765625-0.1855469-0.8486328v-8.1689453
		h-1.1953125v8.3408203c0,0.7148438,0.1855469,1.2207031,0.5546875,1.5195313s0.859375,0.4482422,1.4658203,0.4482422h0.5400391
		h8.7939453c0.4931641,0,0.8623047-0.0634766,1.1083984-0.1933594c0.2460938-0.1269531,0.4257813-0.2675781,0.5400391-0.4199219
		c0.1513672,0.2285156,0.3349609,0.3867188,0.5498047,0.4775391c0.2158203,0.0927734,0.4609375,0.1357422,0.7382813,0.1357422
		h0.15625h0.0029297l0,0h4.5664063l-0.0078125-0.0039063c0.0654297,0.0019531,0.1318359,0.0039063,0.2021484,0.0039063
		c1.8916016,0,2.6503906-0.6064453,2.6503906-2.7246094v-0.6044922
		C74.7080078,53.9355469,73.9492188,53.3291016,72.0576172,53.3291016 M64.8662109,57.2587891
		c0,0.3984375-0.0566406,0.6865234-0.1708984,0.8623047s-0.3652344,0.2636719-0.7548828,0.2636719h-5.4755859v-4.0576172h3.4130859
		c0.5976563,0,1.0888672,0.0117188,1.4726563,0.1298828c0.3847656,0.1191406,0.6904297,0.296875,0.9179688,0.5351563
		c0.2265625,0.2373047,0.3837891,0.5341797,0.4697266,0.890625c0.0839844,0.3554688,0.1279297,0.7753906,0.1279297,1.2617188
		V57.2587891z M73.53125,56.6582031c0,1.5439453-0.2529297,1.7265625-1.4736328,1.7265625
		c-1.2216797,0-1.4746094-0.1826172-1.4746094-1.7265625v-0.6044922c0-1.5439453,0.2529297-1.7265625,1.4746094-1.7265625
		c1.2207031,0,1.4736328,0.1826172,1.4736328,1.7265625V56.6582031z"/>
</g>
</svg>
